<?xml version='1.0'?><svg xmlns="http://www.w3.org/2000/svg" viewBox="0 0 240 240" width="240" height="240">
			<rect id="frame-background" fill="#ffffff" x="8" y="8" width="224" height="224" />
			<!-- 
Bitly Generated QR Code
v4
33x33
-->
<svg  x='30.00' y='30.00' width='180.00' height='180.00' viewBox='0 0 528 528'
xmlns='http://www.w3.org/2000/svg'
xmlns:xlink='http://www.w3.org/1999/xlink'>
	<g id='background' style='fill:#ffffff' >
<rect x="0" y="0" width="528" height="528" />
</g>
<g id='pips' style='fill:#000000' >
<path d="M0,192L16,192L16,176L16,160L16,144L32,144L32,128L48,128L64,128L80,128L80,144L80,160L64,160L64,176L48,176L48,160L32,160L32,176L48,176L48,192L64,192L64,208L64,224L48,224L32,224L16,224L16,240L32,240L48,240L48,256L64,256L64,240L64,224L80,224L96,224L112,224L112,240L96,240L96,256L80,256L80,272L96,272L96,288L112,288L112,304L96,304L80,304L64,304L64,320L48,320L48,304L32,304L32,320L32,336L32,352L16,352L16,368L16,384L16,400L0,400L0,384L0,368L0,352L0,336L0,320L16,320L16,304L16,288L16,272L0,272L0,256L0,240L0,224L0,208L0,192M32,272L32,288L48,288L48,272L32,272M32,352L48,352L48,368L48,384L32,384L32,368L32,352M48,336L64,336L80,336L96,336L96,352L80,352L64,352L48,352L48,336M64,176L80,176L80,192L64,192L64,176M80,192L96,192L112,192L112,208L96,208L80,208L80,192M80,368L96,368L96,384L80,384L80,368M96,128L112,128L112,144L96,144L96,128M96,160L112,160L112,144L128,144L128,128L128,112L128,96L128,80L144,80L144,96L144,112L160,112L160,96L160,80L160,64L176,64L176,80L176,96L176,112L176,128L176,144L160,144L160,160L160,176L160,192L176,192L176,208L192,208L208,208L208,224L192,224L192,240L176,240L176,256L192,256L192,240L208,240L224,240L224,256L224,272L208,272L192,272L192,288L192,304L176,304L176,288L176,272L160,272L144,272L128,272L112,272L96,272L96,256L112,256L112,240L128,240L128,224L144,224L144,240L144,256L160,256L160,240L160,224L160,208L144,208L128,208L128,192L112,192L112,176L96,176L96,160M96,320L112,320L112,336L96,336L96,320M96,352L112,352L112,368L96,368L96,352M96,384L112,384L112,400L96,400L96,384M128,160L128,176L144,176L144,160L128,160M112,304L128,304L128,288L144,288L160,288L160,304L144,304L144,320L128,320L112,320L112,304M128,0L144,0L144,16L160,16L160,32L160,48L160,64L144,64L144,48L128,48L128,32L128,16L128,0M128,384L144,384L160,384L160,368L144,368L144,352L144,336L160,336L160,352L176,352L176,368L176,384L176,400L176,416L160,416L160,400L144,400L144,416L128,416L128,400L128,384M128,448L144,448L160,448L160,464L144,464L144,480L144,496L128,496L128,480L128,464L128,448M144,416L160,416L160,432L144,432L144,416M160,0L176,0L176,16L160,16L160,0M160,304L176,304L176,320L160,320L160,304M160,464L176,464L176,448L176,432L176,416L192,416L192,432L208,432L208,416L224,416L240,416L256,416L256,432L240,432L224,432L224,448L224,464L208,464L208,448L192,448L192,464L208,464L208,480L192,480L192,496L192,512L192,528L176,528L176,512L176,496L160,496L160,480L160,464M176,16L192,16L192,32L208,32L208,48L224,48L240,48L240,64L224,64L224,80L208,80L208,64L192,64L192,48L176,48L176,32L176,16M176,144L192,144L192,160L208,160L208,144L224,144L224,160L224,176L240,176L240,192L224,192L224,208L208,208L208,192L192,192L176,192L176,176L176,160L176,144M176,336L192,336L192,352L176,352L176,336M192,96L208,96L208,112L192,112L192,96M192,128L208,128L208,144L192,144L192,128M192,304L208,304L208,288L224,288L240,288L240,304L256,304L256,320L240,320L240,336L256,336L272,336L272,352L256,352L256,368L240,368L240,352L224,352L208,352L208,336L208,320L192,320L192,304M192,352L208,352L208,368L192,368L192,352M192,384L208,384L224,384L240,384L256,384L272,384L288,384L304,384L304,400L288,400L272,400L256,400L240,400L224,400L208,400L192,400L192,384M208,0L224,0L240,0L256,0L256,16L240,16L224,16L208,16L208,0M208,112L224,112L224,128L208,128L208,112M208,496L224,496L240,496L256,496L256,512L256,528L240,528L224,528L208,528L208,512L208,496M224,96L240,96L240,112L224,112L224,96M224,128L240,128L240,112L256,112L256,96L272,96L272,112L288,112L288,128L272,128L256,128L256,144L272,144L272,160L256,160L256,176L240,176L240,160L240,144L224,144L224,128M240,64L256,64L256,80L256,96L240,96L240,80L240,64M240,192L256,192L256,208L240,208L240,192M240,224L256,224L256,208L272,208L272,224L272,240L272,256L288,256L288,240L304,240L304,256L304,272L320,272L320,288L336,288L336,304L320,304L304,304L304,288L288,288L288,272L272,272L256,272L256,256L240,256L240,240L240,224M240,448L256,448L256,432L272,432L272,416L288,416L304,416L320,416L336,416L336,432L320,432L320,448L304,448L304,432L288,432L288,448L288,464L272,464L256,464L256,480L240,480L240,464L240,448M256,16L272,16L272,32L288,32L304,32L304,48L304,64L320,64L320,80L320,96L304,96L304,112L288,112L288,96L272,96L272,80L288,80L288,64L272,64L256,64L256,48L256,32L256,16M256,288L272,288L288,288L288,304L288,320L304,320L320,320L320,336L336,336L352,336L352,352L352,368L368,368L384,368L384,352L368,352L368,336L384,336L400,336L400,320L384,320L368,320L368,304L384,304L400,304L400,288L384,288L368,288L368,272L368,256L384,256L384,272L400,272L400,256L384,256L384,240L400,240L416,240L416,256L416,272L432,272L432,288L448,288L448,304L432,304L432,320L416,320L416,336L432,336L432,320L448,320L464,320L464,304L480,304L480,288L496,288L512,288L512,304L496,304L496,320L480,320L480,336L464,336L448,336L448,352L448,368L432,368L432,352L416,352L400,352L400,368L400,384L416,384L432,384L448,384L464,384L464,368L464,352L480,352L496,352L496,336L496,320L512,320L528,320L528,336L528,352L512,352L512,368L512,384L496,384L480,384L480,400L464,400L464,416L480,416L480,400L496,400L496,416L512,416L512,432L528,432L528,448L528,464L528,480L512,480L512,464L496,464L496,448L480,448L464,448L464,464L480,464L496,464L496,480L480,480L464,480L448,480L448,464L432,464L416,464L416,480L432,480L432,496L448,496L448,512L432,512L416,512L400,512L400,496L384,496L384,512L400,512L400,528L384,528L368,528L352,528L352,512L368,512L368,496L352,496L352,480L368,480L384,480L400,480L400,464L384,464L384,448L368,448L368,432L368,416L384,416L384,400L384,384L368,384L368,400L352,400L352,384L336,384L336,400L320,400L320,384L320,368L336,368L336,352L320,352L304,352L288,352L288,336L272,336L272,320L272,304L256,304L256,288M272,192L288,192L288,208L272,208L272,192M272,352L288,352L288,368L272,368L272,352M272,480L288,480L288,496L272,496L272,480M288,0L304,0L320,0L336,0L336,16L320,16L304,16L288,16L288,0M288,144L304,144L304,160L304,176L288,176L288,160L288,144M288,208L304,208L304,224L288,224L288,208M288,464L304,464L320,464L336,464L336,448L336,432L352,432L352,448L352,464L352,480L336,480L320,480L320,496L304,496L304,480L288,480L288,464M288,496L304,496L304,512L304,528L288,528L288,512L288,496M304,112L320,112L320,96L336,96L336,112L352,112L352,128L336,128L320,128L320,144L304,144L304,128L304,112M304,176L320,176L320,192L304,192L304,176M304,224L320,224L320,240L304,240L304,224M320,48L336,48L336,64L320,64L320,48M320,208L336,208L336,224L320,224L320,208M320,496L336,496L352,496L352,512L336,512L320,512L320,496M336,32L352,32L352,16L368,16L368,32L384,32L384,16L368,16L368,0L384,0L400,0L400,16L400,32L400,48L384,48L384,64L384,80L368,80L352,80L336,80L336,64L352,64L352,48L336,48L336,32M336,144L352,144L352,160L352,176L368,176L368,192L384,192L384,176L400,176L400,192L416,192L416,208L400,208L400,224L384,224L368,224L368,240L368,256L352,256L336,256L336,240L352,240L352,224L352,208L352,192L336,192L336,176L336,160L336,144M336,272L352,272L352,288L336,288L336,272M336,304L352,304L352,320L336,320L336,304M336,400L352,400L352,416L336,416L336,400M352,96L368,96L368,112L352,112L352,96M352,128L368,128L384,128L384,144L384,160L368,160L368,144L352,144L352,128M352,288L368,288L368,304L352,304L352,288M352,320L368,320L368,336L352,336L352,320M384,96L400,96L400,112L384,112L384,96M400,400L400,416L400,432L400,448L416,448L432,448L448,448L448,432L448,416L448,400L432,400L416,400L400,400M400,128L416,128L432,128L448,128L448,144L432,144L432,160L448,160L448,176L432,176L432,192L416,192L416,176L400,176L400,160L400,144L400,128M416,208L432,208L448,208L448,224L432,224L416,224L416,208M416,416L432,416L432,432L416,432L416,416M432,240L448,240L448,256L464,256L464,240L464,224L480,224L480,208L496,208L496,224L512,224L512,240L496,240L496,256L480,256L480,272L464,272L448,272L432,272L432,256L432,240M448,192L464,192L464,208L448,208L448,192M464,176L480,176L496,176L496,192L480,192L464,192L464,176M480,128L496,128L512,128L528,128L528,144L528,160L512,160L512,144L496,144L496,160L480,160L480,144L480,128M496,160L512,160L512,176L496,176L496,160M512,176L528,176L528,192L512,192L512,176M512,208L528,208L528,224L512,224L512,208M512,240L528,240L528,256L512,256L512,240M512,272L528,272L528,288L512,288L512,272M512,384L528,384L528,400L528,416L512,416L512,400L512,384Z" />
<path d="M4.7253,9.0689C6.179,9.0436 6.4149,7.6154 6.4149,6.769C6.4149,5.5163 5.775,5.0788 5,5C4.0425,5.4242 3.3403,6.146 3.2555,7.2606C3.2416,7.4443 3.237,7.6894 3.2516,7.9757C3.2906,8.7383 3.8493,9.0843 4.7253,9.0689 M 12.2447 10.8068 C 11.2047 10.8068 10.1118 10.1673 10.06 8.9707 C 8.8774 10.2223 7.0538 10.8186 4.7253 10.8186 C 2.3769 10.8186 1.396 9.2175 1.396 7.9703 C 1.4554 3.8126 1.3605 2.255 1.341 1.9353 C 1.3393 1.907 1.3381 1.8884 1.3377 1.8785 L 1.3373 1.8677 C 1.3313 1.7096 1.3224 1.4733 1.172 1.4572 C 1.0786 1.4472 1.0183 1.4757 0.911 1.6094 C 0.75 1.8233 0.425 1.908 0.2273 1.7937 C -0.0116 1.6555 -0.0562 1.3505 0.0647 1.0697 C 0.4002 0.3212 0.9379 -0.01 1.6625 0.0003 C 2.9146 0.0182 3.2738 0.8359 3.2738 1.8575 C 3.2738 1.8575 3.246 3.3292 3.246 4.1579 C 3.689 3.7969 4.3397 3.4098 5.4266 3.4098 C 7.6899 3.4098 9.1267 6.2118 7.6503 8.8925 C 9.5428 8.0197 9.9378 6.5164 10.0112 5.0238 L 10.0043 4.5203 C 10.0043 3.9552 10.3688 3.4767 10.9361 3.4767 C 11.5034 3.4767 11.8802 3.9877 11.86 4.5271 C 11.7919 6.3438 11.7644 7.5395 11.7644 8.1722 C 11.7644 8.5384 11.9642 9.0996 12.5555 9.0996 C 13.7134 9.0996 14.094 8.1922 14.1838 6.0595 C 14.1885 5.2642 14.1927 4.5997 14.1927 4.5997 C 13.6679 4.5997 13.4094 4.324 13.4094 3.9795 C 13.4094 3.635 13.683 3.3163 14.1321 3.3163 C 14.1321 3.3163 14.133 2.1182 14.133 1.622 C 14.133 1.0569 14.5715 0.5883 15.1388 0.5883 C 15.7062 0.5883 16.1567 1.0569 16.1567 1.622 C 16.1567 1.8095 16.1495 2.028 16.1416 2.2695 C 16.1315 2.5784 16.1201 2.9246 16.121 3.2909 L 16.2032 3.2905 H 16.2032 C 16.357 3.29 16.7051 3.2888 17.1681 3.2834 C 17.7198 3.2769 17.9445 3.5851 17.9445 3.9709 C 17.9445 4.3567 17.6475 4.626 17.2602 4.6276 C 16.9012 4.6291 16.1083 4.6247 16.1083 4.6247 C 16.0723 5.7674 16.0382 7.1451 16.0382 8.2475 C 16.0382 8.6451 16.3126 9.0995 16.9767 9.0995 C 18.3163 9.0995 18.8167 7.9092 18.9173 5.6498 C 18.9095 4.0766 18.8907 3.1653 18.8765 2.4785 V 2.4785 C 18.8666 1.9969 18.859 1.6258 18.859 1.2143 C 18.859 0.6493 19.3295 0.1442 19.8967 0.1442 C 20.4641 0.1442 20.8826 0.5977 20.8826 1.1627 C 20.8826 1.598 20.8651 2.1069 20.8413 2.8009 V 2.8009 V 2.801 C 20.801 3.9747 20.7425 5.6778 20.7195 8.4504 C 20.7165 8.8195 20.8967 9.0795 21.3748 9.0795 C 22.6524 9.0795 23.0066 7.6955 23.119 5.7625 C 23.1197 5.6695 23.1205 5.5785 23.1214 5.4891 L 23.1214 5.4887 C 23.1231 5.3054 23.1247 5.1289 23.1247 4.9561 C 23.1247 4.391 23.5011 3.9337 24.0686 3.9337 C 24.6359 3.9337 24.9694 4.4022 24.9694 4.9673 C 24.9694 5.3698 24.9562 5.7464 24.9427 6.1348 C 24.9307 6.4777 24.9184 6.8299 24.9146 7.2176 C 24.9047 8.2151 25.2455 9.0938 26.0756 9.0914 C 26.8726 9.0891 27.7479 8.7536 27.7691 7.045 C 27.7751 6.5701 27.7683 6.2053 27.7615 5.8371 V 5.837 V 5.8369 V 5.8368 C 27.7564 5.5642 27.7513 5.2897 27.7513 4.9673 C 27.7513 4.4022 28.1451 3.9337 28.7125 3.9337 C 29.2795 3.9337 29.6737 4.4022 29.6737 4.9673 C 29.6737 5.3051 29.6614 5.6415 29.6477 6.0145 V 6.0145 V 6.0146 V 6.0146 C 29.6307 6.4783 29.6117 6.9984 29.6117 7.6477 C 29.6117 7.6477 29.5769 10.0141 29.66 10.5378 C 29.9203 10.4512 30.2958 10.1968 30.6935 9.5802 C 30.9337 9.208 31.3928 9.1282 31.6758 9.293 C 32.0653 9.52 32.0514 9.9635 31.9058 10.2875 C 31.5298 11.1239 31.0409 11.6358 29.8047 12.0595 C 29.8086 13.4782 29.7098 15.5713 27.0868 15.9496 C 24.8405 16.2735 23.8244 14.9708 23.8211 13.8623 C 23.8157 12.112 25.5649 11.6022 28.0897 10.9665 L 28.0087 10.099 C 28.0087 10.099 27.4464 10.8364 26.0215 10.8008 C 24.9223 10.7733 24.1663 10.2543 23.7077 9.5213 C 23.1787 10.3901 22.3495 10.8105 21.1004 10.8105 C 20.2775 10.8105 19.4934 10.3758 19.1051 9.7457 C 18.5325 10.4308 17.7339 10.8015 16.6607 10.8015 C 15.7256 10.8015 15.0346 10.4786 14.6209 9.9746 C 14.087 10.5712 13.318 10.8068 12.2447 10.8068 Z M 28.2548 12.363 C 26.9786 12.6385 25.3798 13.0407 25.3983 13.8266 C 25.4158 14.5636 26.1767 14.6977 26.8111 14.5666 C 28.1286 14.2943 28.2816 13.5015 28.2548 12.363 Z M 11.9704 1.6249 C 11.9704 1.0544 11.5073 0.5932 10.9347 0.5932 C 10.3619 0.5932 9.8989 1.0544 9.8989 1.6249 C 9.8989 2.1953 10.3619 2.6566 10.9347 2.6566 C 11.5073 2.6566 11.9704 2.1953 11.9704 1.6249 Z" fill='#000000' transform='translate(456.000000, 492.000000) scale(2.250000, 2.250000)' />
</g>
<g id='corners-outer-1' style='fill:#000000' >
<path d="M0,0L16,0L32,0L48,0L64,0L80,0L96,0L112,0L112,16L112,32L112,48L112,64L112,80L112,96L112,112L96,112L80,112L64,112L48,112L32,112L16,112L0,112L0,96L0,80L0,64L0,48L0,32L0,16L0,0M16,16L16,32L16,48L16,64L16,80L16,96L32,96L48,96L64,96L80,96L96,96L96,80L96,64L96,48L96,32L96,16L80,16L64,16L48,16L32,16L16,16Z" />
</g>
<g id='corners-inner-1' style='fill:#000000' >
<path d="M32,32L48,32L64,32L80,32L80,48L80,64L80,80L64,80L48,80L32,80L32,64L32,48L32,32Z" />
</g>
<g id='corners-outer-2' style='fill:#000000' >
<path d="M416,0L432,0L448,0L464,0L480,0L496,0L512,0L528,0L528,16L528,32L528,48L528,64L528,80L528,96L528,112L512,112L496,112L480,112L464,112L448,112L432,112L416,112L416,96L416,80L416,64L416,48L416,32L416,16L416,0M432,16L432,32L432,48L432,64L432,80L432,96L448,96L464,96L480,96L496,96L512,96L512,80L512,64L512,48L512,32L512,16L496,16L480,16L464,16L448,16L432,16Z" />
</g>
<g id='corners-inner-2' style='fill:#000000' >
<path d="M448,32L464,32L480,32L496,32L496,48L496,64L496,80L480,80L464,80L448,80L448,64L448,48L448,32Z" />
</g>
<g id='corners-outer-3' style='fill:#000000' >
<path d="M0,416L16,416L32,416L48,416L64,416L80,416L96,416L112,416L112,432L112,448L112,464L112,480L112,496L112,512L112,528L96,528L80,528L64,528L48,528L32,528L16,528L0,528L0,512L0,496L0,480L0,464L0,448L0,432L0,416M16,432L16,448L16,464L16,480L16,496L16,512L32,512L48,512L64,512L80,512L96,512L96,496L96,480L96,464L96,448L96,432L80,432L64,432L48,432L32,432L16,432Z" />
</g>
<g id='corners-inner-3' style='fill:#000000' >
<path d="M32,448L48,448L64,448L80,448L80,464L80,480L80,496L64,496L48,496L32,496L32,480L32,464L32,448Z" />
</g>
</svg>
<g id="frame-sections">
				<path fill="#000000" d="M222,10a8,8,0,0,1,8,8V222a8,8,0,0,1-8,8H18a8,8,0,0,1-8-8V18a8,8,0,0,1,8-8H222m0-10H18A18,18,0,0,0,0,18V222a18,18,0,0,0,18,18H222a18,18,0,0,0,18-18V18A18,18,0,0,0,222,0Z"/>
			</g>
			</svg>