<svg xmlns="http://www.w3.org/2000/svg" width="234.894" height="203.736"><g data-name="Group 3344" clip-path="url(#a)"><path d="m168.905 48.997 1.07-.571 3.932 7.364-1.07.571c-2.613-2.174-5.655-4.674-7.876-3.466-1.734.95-1.767 3.78 1.182 6.8l-1.081.578c-3.73-3.917-3.027-7.36-.836-8.553 2.65-1.43 5.88 1.001 7.276 2.14l-2.597-4.863Z" fill="#fff" fill-rule="evenodd" data-name="Path 5173"/><path d="M164.976 49.72c-3.145.535-5.67-1.457-6.162-4.353-.491-2.884 1.233-5.598 4.38-6.133 3.144-.535 5.716 1.448 6.207 4.331.493 2.898-1.278 5.62-4.425 6.154m-1.545-9.128c-2.582.439-3.723 2.424-3.36 4.562.37 2.177 2.102 3.654 4.683 3.215 2.548-.434 3.76-2.41 3.39-4.589-.364-2.137-2.165-3.621-4.713-3.188" fill="#fff" fill-rule="evenodd" data-name="Path 5174"/><path d="m168.87 25.583-2.57 8.107 2.269 1.098-.425 1.338-9.091-4.448 2.736-8.632 9.994 1.602-.426 1.345-2.486-.41Zm-1.21-.197-5.072-.844-2.023 6.38 4.633 2.233 2.463-7.77Z" fill="#fff" fill-rule="evenodd" data-name="Path 5175"/><path d="m171.994 9.4 7.476 6.662-2.264 2.54-10.017-1.742-.702.788 6.447 5.748-.94 1.053-7.474-6.664 2.123-2.381 10.037 1.76.848-.951-6.468-5.765.934-1.049Z" fill="#fff" fill-rule="evenodd" data-name="Path 5176"/><path d="M176.466 12.078c-1.454-2.838-.117-5.94 2.752-7.41 2.844-1.456 6.141-.725 7.595 2.113 1.453 2.838.14 5.984-2.705 7.44-2.87 1.47-6.189.696-7.642-2.143m9.082-4.641c-1.185-2.317-3.652-2.708-5.75-1.634-2.147 1.1-3.241 3.312-2.055 5.63 1.167 2.28 3.637 2.753 5.784 1.654 2.099-1.074 3.19-3.37 2.021-5.65" fill="#fff" fill-rule="evenodd" data-name="Path 5177"/><path d="m188.16 11.096-.163-1.347.169-.021c1.223.456 3.068.658 4.712.457 2.978-.362 3.957-1.395 3.824-2.49-.104-.86-.865-1.297-2.462-1.212-.873.044-2.318.13-3.2.176-2.083.089-3.586-.525-3.801-2.291-.218-1.794 1.424-3.196 4.822-3.609 1.678-.204 3.628.005 4.472.287l.151 1.239-.136.016c-1.103-.367-2.798-.539-4.443-.339-2.72.331-3.544 1.242-3.43 2.176.109.9.956 1.319 2.455 1.219.873-.05 2.153-.138 3.153-.164 2.61-.056 3.688.684 3.883 2.282.246 2.024-1.477 3.497-5.152 3.944-1.712.208-3.594.032-4.853-.323" fill="#fff" fill-rule="evenodd" data-name="Path 5178"/><path d="m206.811 3.28-1.123 2.929 5.683 2.181-.422 1.101-5.683-2.18-1.173 3.054 7.74 2.97-.435 1.133-9.057-3.475 3.588-9.35 9.057 3.475-.435 1.133-7.74-2.97Z" fill="#fff" fill-rule="evenodd" data-name="Path 5179"/><path d="m218.511 7.106 2.148 2.033-2.765 6.767.559.53 6.621-3.117 2.138 2.024-6.883 7.27-1.024-.97 5.856-6.186-.58-.548-6.845 3.128-1.402-1.326 2.765-6.994-.594-.562-5.857 6.186-1.02-.965 6.883-7.27Z" fill="#fff" fill-rule="evenodd" data-name="Path 5180"/><path d="m227.027 32.155-2.531.935-2.894-7.832 2.455-.907 2.97 7.804Zm1.1-9.082 2.78-1.028c3.238 4.4 2.172 7.51-.406 8.616-1.575.654-3.306-.116-4.456-1.108l-1.988-5.202c2.599 2.963 3.949 3.49 4.922 2.84.92-.617.88-2.004-.853-4.118" fill="#fff" fill-rule="evenodd" data-name="Path 5181"/><path d="m226.78 43.541-.025-1.05-1.875.046-.096-3.885 1.875-.046-.146-5.944 2.339-.058 5.902 3.996.14 5.692-5.801.143.025 1.049-2.338.057Zm2.217-4.992 3.068-.076-3.12-2.086.052 2.162Z" fill="#fff" fill-rule="evenodd" data-name="Path 5182"/><path d="m228.863 59.995-9.044-4.287 1.707-3.602 3.3 1.564 1.104-2.327-3.3-1.564 1.707-3.602 9.045 4.288-1.708 3.601-3.262-1.547-1.104 2.327 3.263 1.548-1.708 3.601Z" fill="#fff" fill-rule="evenodd" data-name="Path 5183"/><path d="M224.523 57.83c2.208 2.17 1.944 5.649-.373 8.007-2.302 2.345-5.777 2.669-7.984.5-2.208-2.169-1.979-5.681.325-8.025 2.317-2.359 5.824-2.65 8.032-.481m-5.576 5.647c.836.822 2.04.772 2.8-.001.77-.783.803-1.993-.034-2.815-.827-.812-2.046-.768-2.816.015-.758.773-.777 1.988.05 2.8" fill="#fff" fill-rule="evenodd" data-name="Path 5184"/><path d="m207.08 65.053 2.421 2.279.241-.115.418-.198.875-.414-1.321-2.792 3.604-1.705 4.286 9.05-1.817.86-3.38 1.608c-2.627 1.236-4.834.75-5.724-1.129-.505-1.065-.351-2.398.653-3.56l-.89.415-2.958-2.598 3.592-1.7Zm3.928 4.22c-.85.401-1.22.97-.926 1.592.262.555.937.627 1.788.225l1.053-.5-.86-1.816-1.055.498Z" fill="#fff" fill-rule="evenodd" data-name="Path 5185"/><path d="m197.387 68.709 3.626-.301.064-1.701 3.98-.33-.66 10.1-9.027.748-2.313-9.854 3.986-.33.344 1.668Zm.565 2.784.506 2.475 2.364-.196.091-2.525-2.96.246Z" fill="#fff" fill-rule="evenodd" data-name="Path 5186"/><path d="m193.595 67.76-.817 2.802-.25-.073c-.921-.86-2.49-1.808-4.093-2.277-1.007-.295-1.422-.189-1.513.126-.084.288.055.492 1.208.971.164.07.429.16.588.222 2.525 1.058 3.787 2.33 3.174 4.431-.545 1.865-2.81 2.745-6.284 1.729-1.466-.429-3.041-1.259-3.715-1.818l.807-2.77.229.067c1.186.951 2.73 1.793 3.998 2.164.7.205.98.074 1.05-.168.088-.302-.118-.519-1.122-.975-.152-.059-.384-.141-.561-.214-3.311-1.622-3.88-2.77-3.34-4.615.622-2.134 2.948-2.733 6.31-1.75 1.715.502 3.257 1.322 4.33 2.148" fill="#fff" fill-rule="evenodd" data-name="Path 5187"/><path d="M23.064 201.679c-1.998 1.435-4.914 2.057-7.903 2.057-7.134 0-12.921-4.943-12.921-11.618 0-6.66 5.788-11.693 12.921-11.693 2.99 0 5.906.637 7.904 2.072v5.314l-.563-.015c-1.45-1.021-3.996-1.85-6.512-1.85-4.352 0-7.415 2.812-7.415 6.2 0 3.435 3.063 6.099 7.415 6.099 2.353 0 5.061-.8 6.527-1.791h.547v5.225Z" fill="#fff" fill-rule="evenodd" data-name="Path 5188"/><path d="M51.877 181.21v10.907c0 6.261-4.93 11.47-11.723 11.47-6.808 0-11.722-5.209-11.722-11.47l.001-10.907h6.424l-.001 11.5c0 3.196 2.264 5.402 5.298 5.402 3.035 0 5.299-2.206 5.299-5.403v-11.5h6.424Z" fill="#fff" fill-rule="evenodd" data-name="Path 5189"/><path d="M76.07 197.816v5.135H58.058V181.21h6.424v16.606H76.07Z" fill="#fff" fill-rule="evenodd" data-name="Path 5190"/><path d="M97.008 186.183h-7.296v16.768h-6.424l.001-16.768h-7.298l.002-4.973h21.016v4.973Z" fill="#fff" fill-rule="evenodd" data-name="Path 5191"/><path d="M125.731 181.21v10.907c0 6.261-4.929 11.47-11.723 11.47-6.807 0-11.72-5.209-11.72-11.47V181.21h6.424l-.002 11.5c0 3.196 2.265 5.402 5.299 5.402 3.034 0 5.298-2.206 5.298-5.403l.001-11.5h6.423Z" fill="#fff" fill-rule="evenodd" data-name="Path 5192"/><path d="m149.096 202.966-2.604-6.66H138.336v6.645h-6.423l.001-21.741h3.39l9.102-.016c6.305.016 10.182 3.005 10.182 7.52 0 2.367-1.437 4.72-4.248 6.112l1.865.015 3.3 8.125h-6.41Zm-5.565-11.189c3.286 0 4.796-1.08 4.796-3.004 0-1.88-1.51-2.946-4.795-2.946h-5.194l-.002 5.95h5.195Z" fill="#fff" fill-rule="evenodd" data-name="Path 5193"/><path d="M178.544 198.644h-12.165l-.564 4.308h-6.423l3.243-21.742h19.67l3.24 21.742h-6.44l-.561-4.308Zm-.622-4.84-.99-7.636h-8.94l-.992 7.637h10.922Z" fill="#fff" fill-rule="evenodd" data-name="Path 5194"/><path d="M208.97 197.816v5.135h-18.012V181.21h6.424l-.001 16.606h11.588Z" fill="#fff" fill-rule="evenodd" data-name="Path 5195"/><path d="M194.26 15.69h4.196v7.326h-4.196V15.69z" fill="#fff" fill-rule="evenodd" data-name="Rectangle 1125"/><path d="M194.26 55.385h4.196v7.325h-4.196v-7.325z" fill="#fff" fill-rule="evenodd" data-name="Rectangle 1126"/><path d="M212.543 37.103h7.326v4.195h-7.326v-4.195z" fill="#fff" fill-rule="evenodd" data-name="Rectangle 1127"/><path d="M172.848 37.103h7.325v4.195h-7.325v-4.195z" fill="#fff" fill-rule="evenodd" data-name="Rectangle 1128"/><path d="m206.32 52.129 2.966-2.968 5.18 5.18-2.967 2.967-5.18-5.18z" fill="#fff" fill-rule="evenodd" data-name="Rectangle 1129"/><path d="m178.25 24.06 2.968-2.967 5.18 5.18-2.968 2.967-5.18-5.18z" fill="#fff" fill-rule="evenodd" data-name="Rectangle 1130"/><path d="m178.25 54.34 5.18-5.179 2.967 2.968-5.18 5.18-2.967-2.968z" fill="#fff" fill-rule="evenodd" data-name="Rectangle 1131"/><path d="m206.319 26.272 5.18-5.18 2.967 2.967-5.18 5.18-2.967-2.967z" fill="#fff" fill-rule="evenodd" data-name="Rectangle 1132"/><path d="m200.693 23.466 2.837-6.753 3.868 1.625-2.837 6.753-3.868-1.625z" fill="#fff" fill-rule="evenodd" data-name="Rectangle 1133"/><path d="m185.318 60.063 2.837-6.753 3.868 1.625-2.837 6.753-3.868-1.625z" fill="#fff" fill-rule="evenodd" data-name="Rectangle 1134"/><path d="m210.467 47.404 1.625-3.869 6.754 2.837-1.625 3.869-6.754-2.837z" fill="#fff" fill-rule="evenodd" data-name="Rectangle 1135"/><path d="m173.87 32.029 1.626-3.869 6.753 2.838-1.625 3.868-6.754-2.837z" fill="#fff" fill-rule="evenodd" data-name="Rectangle 1136"/><path d="m200.534 54.978 3.884-1.586 2.77 6.781-3.885 1.587-2.769-6.782z" fill="#fff" fill-rule="evenodd" data-name="Rectangle 1137"/><path d="m185.528 18.229 3.885-1.587 2.769 6.782-3.885 1.586-2.77-6.781z" fill="#fff" fill-rule="evenodd" data-name="Rectangle 1138"/><path d="m173.8 46.146 6.781-2.769 1.586 3.885-6.781 2.769-1.587-3.885z" fill="#fff" fill-rule="evenodd" data-name="Rectangle 1139"/><path d="m210.548 31.14 6.782-2.77 1.587 3.885-6.782 2.77-1.587-3.886z" fill="#fff" fill-rule="evenodd" data-name="Rectangle 1140"/><path d="M196.231 25.384c-7.579 0-13.723 6.144-13.723 13.723 0 7.58 6.144 13.723 13.723 13.723 7.58 0 13.724-6.144 13.724-13.723 0-7.58-6.144-13.723-13.724-13.723m5.563 24.656c.193 0 .384-.006.574-.016a12.384 12.384 0 0 1-6.133 1.618c-6.872 0-12.443-5.57-12.443-12.443 0-6.872 5.571-12.443 12.443-12.443 2.23 0 4.323.59 6.133 1.618-.19-.01-.38-.016-.574-.016-5.987 0-10.84 4.854-10.84 10.841 0 5.987 4.853 10.84 10.84 10.84" fill="#fff" fill-rule="evenodd" data-name="Path 5196"/><path d="M104.5 95.412a20.773 20.773 0 0 0 5.268-13.85c0-11.521-9.338-20.86-20.859-20.86H34.29v7.334h17.321v5.602h-17.32v7.254h17.32v5.601h-17.32v7.254h17.32v5.602h-17.32v7.253h17.32v5.602h-17.32v7.293h33.491v-10.273l10.274 10.273h50.53l-24.085-24.085ZM81.806 79.744a6.6 6.6 0 0 1-6.6 6.6h-7.423v-13.2h7.424a6.6 6.6 0 0 1 6.6 6.6" fill="#fff" fill-rule="evenodd" data-name="Path 5197"/><path d="M97.046 25.521v33.027h52.353V20.11h-46.942l-5.411 5.411Z" fill="#fff" fill-rule="evenodd" data-name="Path 5198"/><path d="m122.74 0-12.621 12.62h39.28V0h-26.66Z" fill="#fff" fill-rule="evenodd" data-name="Path 5199"/><path d="M68.003 120.992H2.805v7.495h24.73v5.566H2.806v7.265h24.73v5.567H2.806v7.264h24.73v5.567H2.806v7.265h24.73v5.566H2.806v6.931h65.198c16.151 0 29.243-13.093 29.243-29.244 0-16.15-13.092-29.242-29.243-29.242m-13.455 35.842h-7.425v-13.199h7.425a6.6 6.6 0 1 1 0 13.2" fill="#fff" fill-rule="evenodd" data-name="Path 5200"/><path d="m18.57.005 41.135 42.867.044-.044v-6.91L25.286 0h18.707l15.712 16.374.044-.044V9.42L50.709 0h68.003l.252.252-59.36 59.36L0 .005h18.57Z" fill="#fff" fill-rule="evenodd" data-name="Path 5201"/><path d="m149.383 76.626 41.134 42.867h18.57l-59.603-59.607-38.64 38.639 20.973 20.972h26.56l-9.039-9.42v-6.91l.045-.044 15.71 16.375h18.708L149.34 83.58v-6.91l.044-.044Z" fill="#fff" fill-rule="evenodd" data-name="Path 5202"/><path d="m119.271 136.607 41.134 42.867h18.57l-59.603-59.607-20.532 20.531a30.4 30.4 0 0 1 1.633 9.836c0 13.859-9.255 25.548-21.919 29.243h49.712l-9.039-9.42v-6.91l.044-.043 15.71 16.374h18.709l-34.463-35.918v-6.91l.044-.043Z" fill="#fff" fill-rule="evenodd" data-name="Path 5203"/><path d="m174.608 67.85-2.196-5.698 6.089.473-3.893 5.226Z" fill="#fff" fill-rule="evenodd" data-name="Path 5204"/></g><defs><clipPath id="a"><path d="M0 0h234.894v203.736H0V0z" data-name="Rectangle 1141"/></clipPath></defs></svg>